<svg width="12" height="15" viewBox="0 0 12 15" fill="none" xmlns="http://www.w3.org/2000/svg">
<path fill-rule="evenodd" clip-rule="evenodd" d="M0.373047 11.905L0.830751 10.9197L0.9897 10.5602C1.4923 9.3645 1.77725 8.07619 1.82921 6.76521L1.83788 6.32747V6.2003L1.84307 5.97253C1.93414 3.97812 3.21462 2.32029 4.93702 1.80362L4.93681 1.63655C4.93681 1.00642 5.44762 0.495605 6.07774 0.495605C6.70787 0.495605 7.21868 1.00642 7.21868 1.63655L7.21968 1.80399C8.9379 2.32 10.2161 3.97172 10.3118 5.96013L10.3176 6.2003V6.32747L10.3248 6.72547C10.372 8.0369 10.6524 9.32637 11.1506 10.524L11.3247 10.9197L11.7824 11.905H8.35962C8.35962 13.1652 7.33799 14.1869 6.07774 14.1869C4.8175 14.1869 3.79587 13.1652 3.79587 11.905H0.373047Z" fill="#475569"/>
</svg>
