<svg width="21" height="20" viewBox="0 0 21 20" fill="none" xmlns="http://www.w3.org/2000/svg">
<path fill-rule="evenodd" clip-rule="evenodd" d="M12.2676 9.36089H14.5741C14.9238 9.36089 15.1986 9.07175 15.1986 8.72307C15.1986 8.3659 14.9238 8.08526 14.5741 8.08526H12.2676C11.9179 8.08526 11.6431 8.3659 11.6431 8.72307C11.6431 9.07175 11.9179 9.36089 12.2676 9.36089ZM17.3137 4.93954C17.8216 4.93954 18.1547 5.11813 18.4877 5.50932C18.8208 5.90052 18.8791 6.4618 18.8042 6.9712L18.0131 12.55C17.8632 13.6224 16.9639 14.4124 15.9064 14.4124H6.82183C5.71436 14.4124 4.7984 13.5458 4.70681 12.4233L3.94074 3.1528L2.68339 2.93169C2.35031 2.87216 2.11716 2.54049 2.17545 2.20032C2.23374 1.8525 2.55848 1.62203 2.89988 1.67391L4.88584 1.97921C5.16895 2.03109 5.37712 2.26835 5.4021 2.5575L5.56031 4.46245C5.58529 4.73544 5.80179 4.93954 6.06825 4.93954H17.3137ZM6.68843 15.7565C5.98898 15.7565 5.42275 16.3348 5.42275 17.0492C5.42275 17.755 5.98898 18.3333 6.68843 18.3333C7.37956 18.3333 7.94579 17.755 7.94579 17.0492C7.94579 16.3348 7.37956 15.7565 6.68843 15.7565ZM16.0561 15.7565C15.3567 15.7565 14.7905 16.3348 14.7905 17.0492C14.7905 17.755 15.3567 18.3333 16.0561 18.3333C16.7473 18.3333 17.3135 17.755 17.3135 17.0492C17.3135 16.3348 16.7473 15.7565 16.0561 15.7565Z" fill="#06162F"/>
</svg>
