<svg width="24" height="24" viewBox="0 0 24 24" fill="none" xmlns="http://www.w3.org/2000/svg">
<path d="M16.85 7V7.15H17H21.85V19.5C21.85 20.1233 21.6024 20.721 21.1617 21.1617C20.721 21.6024 20.1233 21.85 19.5 21.85H4.5C3.87674 21.85 3.27901 21.6024 2.8383 21.1617C2.39759 20.721 2.15 20.1233 2.15 19.5V7.15H7H7.15V7C7.15 5.7137 7.66098 4.48008 8.57053 3.57053C9.48008 2.66098 10.7137 2.15 12 2.15C13.2863 2.15 14.5199 2.66098 15.4295 3.57053C16.339 4.48008 16.85 5.7137 16.85 7ZM15.3333 7.15H15.4833V7C15.4833 6.07616 15.1163 5.19016 14.4631 4.53691C13.8098 3.88366 12.9238 3.51667 12 3.51667C11.0762 3.51667 10.1902 3.88366 9.53691 4.53691C8.88366 5.19016 8.51667 6.07616 8.51667 7V7.15H8.66667H15.3333ZM3.66667 8.51667H3.51667V8.66667V19.5C3.51667 19.7608 3.62027 20.0109 3.80468 20.1953C3.98909 20.3797 4.2392 20.4833 4.5 20.4833H19.5C19.7608 20.4833 20.0109 20.3797 20.1953 20.1953C20.3797 20.0109 20.4833 19.7608 20.4833 19.5V8.66667V8.51667H20.3333H17H16.85V8.66667V10.1833H15.4833V8.66667V8.51667H15.3333H8.66667H8.51667V8.66667V10.1833H7.15V8.66667V8.51667H7H3.66667Z" fill="#06162F" stroke="white" stroke-width="0.3"/>
</svg>
