<svg width="20" height="20" viewBox="0 0 20 20" fill="none" xmlns="http://www.w3.org/2000/svg">
<path fill-rule="evenodd" clip-rule="evenodd" d="M2.2915 1.04163C1.94633 1.04163 1.6665 1.32145 1.6665 1.66663C1.6665 2.0118 1.94633 2.29163 2.2915 2.29163H3.95817C4.53347 2.29163 4.99984 2.758 4.99984 3.33329V4.99996V10.1666C4.99984 12.3758 6.7907 14.1666 8.99983 14.1666H14.3332C16.5423 14.1666 18.3332 12.3758 18.3332 10.1666V7.33329C18.3332 5.12415 16.5423 3.33329 14.3332 3.33329L6.24984 3.33329C6.24984 2.06764 5.22382 1.04163 3.95817 1.04163H2.2915ZM7.9165 18.3333C8.60686 18.3333 9.1665 17.7736 9.1665 17.0833C9.1665 16.3929 8.60686 15.8333 7.9165 15.8333C7.22615 15.8333 6.6665 16.3929 6.6665 17.0833C6.6665 17.7736 7.22615 18.3333 7.9165 18.3333ZM16.6665 17.0833C16.6665 17.7736 16.1069 18.3333 15.4165 18.3333C14.7261 18.3333 14.1665 17.7736 14.1665 17.0833C14.1665 16.3929 14.7261 15.8333 15.4165 15.8333C16.1069 15.8333 16.6665 16.3929 16.6665 17.0833ZM12.4165 6.66663C12.4165 6.25241 12.0807 5.91663 11.6665 5.91663C11.2523 5.91663 10.9165 6.25241 10.9165 6.66663V7.99996H9.58317C9.16896 7.99996 8.83317 8.33575 8.83317 8.74996C8.83317 9.16417 9.16896 9.49996 9.58317 9.49996H10.9165V10.8333C10.9165 11.2475 11.2523 11.5833 11.6665 11.5833C12.0807 11.5833 12.4165 11.2475 12.4165 10.8333V9.49996H13.7498C14.1641 9.49996 14.4998 9.16417 14.4998 8.74996C14.4998 8.33575 14.1641 7.99996 13.7498 7.99996H12.4165V6.66663Z" fill="white"/>
</svg>
