<svg width="52" height="52" viewBox="0 0 52 52" fill="none" xmlns="http://www.w3.org/2000/svg">
<path d="M24.6656 19.5761L23.3208 19.9364L22.3601 16.3506C22.0946 15.36 21.0773 14.7726 20.0867 15.038L16.5008 15.9989L16.1405 14.6542C15.8091 13.4171 14.536 12.6821 13.2989 13.0135C12.0617 13.345 11.3268 14.6181 11.6582 15.8552L12.0185 17.1999L8.43268 18.1607C7.44208 18.4262 6.86371 19.4411 7.12919 20.4317L8.03748 23.8395L9.37764 23.4803C10.7134 23.1224 12.0888 23.9165 12.4467 25.2522C12.8046 26.588 12.0105 27.9633 10.6748 28.3212L9.33454 28.6803L10.2428 32.0881C10.5083 33.0787 11.5256 33.666 12.5162 33.4006L15.9228 32.4878L15.5625 31.1431C15.2045 29.8073 15.9986 28.432 17.3343 28.0741C18.6701 27.7162 20.0454 28.5103 20.4034 29.846L20.7637 31.1907L24.1702 30.2779C25.1608 30.0125 25.7481 28.9952 25.4827 28.0046L24.5219 24.4187L25.8666 24.0584C27.1037 23.727 27.8387 22.4539 27.5072 21.2167C27.1757 19.9797 25.9027 19.2446 24.6656 19.5761Z" fill="#FD9A05"/>
<path d="M15.803 31.3008L16.1634 32.6455L12.5775 33.6063C11.587 33.8718 10.9996 34.8891 11.265 35.8797L12.2258 39.4655L10.8811 39.8258C9.64401 40.1573 8.90903 41.4304 9.24046 42.6675C9.57196 43.9046 10.845 44.6396 12.0821 44.3082L13.4269 43.9479L14.3876 47.5337C14.6531 48.5243 15.668 49.1026 16.6586 48.8372L20.0664 47.9289L19.7073 46.5887C19.3494 45.253 20.1434 43.8776 21.4791 43.5197C22.8149 43.1618 24.1903 43.9559 24.5482 45.2916L24.9073 46.6318L28.315 45.7235C29.3056 45.4581 29.893 44.4408 29.6275 43.4502L28.7147 40.0436L27.3701 40.4039C26.0343 40.7618 24.6589 39.9677 24.301 38.632C23.9431 37.2962 24.7372 35.9209 26.0729 35.563L27.4176 35.2027L26.5049 31.7962C26.2394 30.8056 25.2221 30.2182 24.2315 30.4836L20.6456 31.4445L20.2853 30.0998C19.9539 28.8627 18.6808 28.1277 17.4437 28.4591C16.2066 28.7906 15.4716 30.0637 15.803 31.3008Z" fill="#14DC94"/>
<path d="M27.5397 40.1634L28.8843 39.8031L29.8452 43.3889C30.1106 44.3795 31.1279 44.9668 32.1185 44.7014L35.7044 43.7405L36.0647 45.0852C36.3962 46.3223 37.6693 47.0573 38.9064 46.7259C40.1435 46.3944 40.8785 45.1213 40.547 43.8842L40.1867 42.5396L43.7726 41.5787C44.7631 41.3133 45.3415 40.2984 45.0761 39.3078L44.1678 35.9L42.8276 36.2591C41.4918 36.617 40.1165 35.8229 39.7586 34.4872C39.4007 33.1514 40.1948 31.7761 41.5305 31.4182L42.8706 31.0591L41.9624 27.6513C41.6969 26.6607 40.6797 26.0734 39.6891 26.3388L36.2824 27.2516L36.6427 28.5963C37.0007 29.9321 36.2066 31.3074 34.8708 31.6653C33.5351 32.0232 32.1598 31.2291 31.8019 29.8934L31.4416 28.5487L28.035 29.4615C27.0444 29.727 26.4571 30.7442 26.7225 31.7348L27.6834 35.3207L26.3387 35.681C25.1016 36.0125 24.3665 37.2856 24.698 38.5227C25.0295 39.7598 26.3026 40.4948 27.5397 40.1634Z" fill="#2176FF"/>
<path d="M37.2196 20.3474L36.2353 19.363L38.8603 16.7381C39.5854 16.0129 39.5855 14.8381 38.8603 14.113L36.2353 11.488L37.2196 10.5036C38.1253 9.59798 38.1253 8.12795 37.2196 7.22233C36.314 6.31667 34.844 6.31667 33.9384 7.22233L32.954 8.20671L30.3289 5.58167C29.6038 4.85652 28.4357 4.86307 27.7105 5.58825L25.2134 8.07876L26.1945 9.05985C27.1723 10.0377 27.1723 11.6258 26.1945 12.6036C25.2167 13.5815 23.6285 13.5815 22.6507 12.6036L21.6696 11.6226L19.1726 14.113C18.4474 14.8381 18.4474 16.0129 19.1726 16.7381L21.6664 19.2318L22.6507 18.2474C23.6286 17.2696 25.2167 17.2696 26.1945 18.2474C27.1724 19.2252 27.1724 20.8134 26.1945 21.7912L25.2102 22.7756L27.7039 25.2693C28.4291 25.9945 29.6038 25.9945 30.3289 25.2693L32.954 22.6444L33.9384 23.6287C34.844 24.5344 36.314 24.5344 37.2196 23.6287C38.1253 22.7231 38.1253 21.2531 37.2196 20.3474Z" fill="#CF2E0A"/>
</svg>
