<svg width="24" height="24" viewBox="0 0 24 24" fill="none" xmlns="http://www.w3.org/2000/svg">
<path d="M11.869 5.77295L12.0003 6.01006L12.1315 5.77295C12.5616 4.9958 13.1892 4.34591 13.9509 3.88892C14.7113 3.43268 15.5784 3.18482 16.465 3.17026C17.8816 3.23297 19.2161 3.8532 20.1774 4.89581C21.1396 5.93951 21.6497 7.32163 21.5962 8.74023L21.5961 8.74022V8.74588C21.5961 10.0826 21.0549 11.4839 20.2219 12.8461C19.3899 14.2068 18.2742 15.5165 17.1429 16.6671C14.8802 18.9683 12.5694 20.6186 12.383 20.7505L12.0003 21.0214L11.6179 20.7508C11.4311 20.6177 9.1203 18.9675 6.85765 16.6665C5.72628 15.516 4.61062 14.2064 3.77861 12.8459C2.94564 11.4838 2.40442 10.0826 2.40442 8.74588H2.40453L2.40431 8.74023C2.35078 7.32163 2.86088 5.93951 3.82315 4.89581C4.78442 3.8532 6.11888 3.23297 7.5355 3.17026C8.4221 3.18482 9.28924 3.43268 10.0496 3.88892C10.8113 4.34591 11.4389 4.9958 11.869 5.77295ZM11.9105 19.3258L12.0003 19.3928L12.09 19.3258C13.4165 18.3349 15.4551 16.623 17.1639 14.7C18.0183 13.7385 18.7933 12.7207 19.3554 11.711C19.9158 10.7042 20.2708 9.69435 20.2718 8.74992C20.3283 7.68418 19.9617 6.63917 19.2516 5.84229C18.5406 5.04441 17.543 4.56003 16.4763 4.49479L16.4671 4.49423L16.4579 4.49479C15.3912 4.56003 14.3936 5.04441 13.6826 5.84229C13.0068 6.60073 12.6421 7.58395 12.6572 8.59588H11.3433C11.3584 7.58395 10.9937 6.60073 10.3179 5.84229C9.60692 5.04441 8.60928 4.56003 7.54257 4.49479L7.53341 4.49423L7.52426 4.49479C6.45755 4.56003 5.45991 5.04441 4.74892 5.84229C4.03884 6.63917 3.67222 7.68419 3.72873 8.74993C3.72974 9.69396 4.0847 10.7036 4.64513 11.7103C5.20723 12.72 5.98223 13.7378 6.83663 14.6994C8.54537 16.6226 10.584 18.3349 11.9105 19.3258Z" fill="#06162F" stroke="white" stroke-width="0.3"/>
</svg>
