<svg width="22" height="21" viewBox="0 0 22 21" fill="none" xmlns="http://www.w3.org/2000/svg">
<path d="M19.2198 15.3473L18.2354 14.363L20.8605 11.738C21.5856 11.0128 21.5857 9.83808 20.8605 9.11295L18.2354 6.48791L19.2198 5.50354C20.1254 4.59792 20.1254 3.12789 19.2198 2.22227C18.3142 1.31661 16.8442 1.31661 15.9385 2.22227L14.9542 3.20664L12.3291 0.581609C11.604 -0.143538 10.4359 -0.13699 9.71066 0.588191L7.21363 3.0787L8.19472 4.05979C9.17252 5.03759 9.17252 6.62571 8.19472 7.60359C7.21685 8.58139 5.62872 8.58139 4.65092 7.60359L3.66983 6.6225L1.1728 9.11295C0.447608 9.83808 0.447608 11.0128 1.1728 11.738L3.66655 14.2317L4.65092 13.2474C5.62879 12.2696 7.21691 12.2696 8.19472 13.2474C9.17259 14.2252 9.17259 15.8133 8.19472 16.7912L7.21034 17.7755L9.70409 20.2693C10.4293 20.9944 11.6039 20.9945 12.3291 20.2693L14.9542 17.6443L15.9385 18.6287C16.8442 19.5343 18.3142 19.5343 19.2198 18.6287C20.1254 17.723 20.1254 16.253 19.2198 15.3473Z" fill="#CF2E0A"/>
</svg>
