<svg width="21" height="21" viewBox="0 0 21 21" fill="none" xmlns="http://www.w3.org/2000/svg">
<path d="M6.80319 3.30081L7.16356 4.64556L3.57768 5.60633C2.58715 5.87181 1.99975 6.88909 2.26516 7.87969L3.22599 11.4656L1.88132 11.8259C0.644195 12.1574 -0.0907843 13.4304 0.240647 14.6675C0.572147 15.9047 1.84519 16.6396 3.08231 16.3082L4.42706 15.9479L5.38783 19.5337C5.6533 20.5243 6.66819 21.1027 7.65879 20.8373L11.0666 19.929L10.7075 18.5887C10.3496 17.253 11.1436 15.8776 12.4793 15.5197C13.8151 15.1618 15.1904 15.9559 15.5484 17.2916L15.9075 18.6318L19.3152 17.7236C20.3058 17.4581 20.8931 16.4408 20.6277 15.4502L19.7149 12.0437L18.3702 12.404C17.0345 12.7619 15.6591 11.9678 15.3012 10.6321C14.9433 9.29628 15.7374 7.92095 17.0731 7.56304L18.4178 7.20273L17.5051 3.79618C17.2396 2.80565 16.2223 2.21826 15.2317 2.48366L11.6458 3.4445L11.2855 2.09982C10.9541 0.8627 9.68097 0.127722 8.44392 0.459153C7.2068 0.790653 6.47175 2.06369 6.80319 3.30081Z" fill="#14DC94"/>
</svg>
