<svg width="21" height="22" viewBox="0 0 21 22" fill="none" xmlns="http://www.w3.org/2000/svg">
<path d="M17.6658 7.57613L16.321 7.93644L15.3602 4.35063C15.0948 3.36003 14.0775 2.7727 13.0869 3.03811L9.501 3.99894L9.1407 2.65426C8.80927 1.41714 7.53616 0.682165 6.29903 1.0136C5.06191 1.3451 4.32693 2.61814 4.65837 3.85526L5.01867 5.19994L1.43286 6.16078C0.442261 6.42625 -0.136103 7.44114 0.129371 8.43174L1.03766 11.8395L2.37782 11.4804C3.71354 11.1225 5.08894 11.9166 5.44685 13.2523C5.80476 14.5881 5.01067 15.9634 3.67495 16.3213L2.33472 16.6804L3.24301 20.0882C3.50848 21.0788 4.52577 21.6661 5.51637 21.4007L8.92298 20.4879L8.56268 19.1432C8.2047 17.8074 8.99879 16.4321 10.3345 16.0742C11.6703 15.7163 13.0456 16.5104 13.4035 17.8461L13.7638 19.1907L17.1704 18.278C18.161 18.0125 18.7483 16.9952 18.4829 16.0046L17.5221 12.4188L18.8668 12.0585C20.1039 11.727 20.8389 10.4539 20.5074 9.2168C20.1759 7.97975 18.9029 7.2447 17.6658 7.57613Z" fill="#FD9A05"/>
</svg>
