<svg width="22" height="21" viewBox="0 0 22 21" fill="none" xmlns="http://www.w3.org/2000/svg">
<path d="M3.53985 14.1633L4.88453 13.803L5.84537 17.3888C6.11077 18.3794 7.12813 18.9668 8.11873 18.7014L11.7045 17.7405L12.0649 19.0852C12.3963 20.3223 13.6695 21.0573 14.9066 20.7259C16.1437 20.3944 16.8787 19.1213 16.5472 17.8842L16.1869 16.5395L19.7727 15.5787C20.7633 15.3133 21.3417 14.2983 21.0762 13.3077L20.1679 9.89994L18.8278 10.2591C17.492 10.617 16.1167 9.8229 15.7588 8.48718C15.4008 7.1514 16.1949 5.77607 17.5307 5.41816L18.8708 5.05909L17.9626 1.65131C17.6971 0.660707 16.6798 0.0733805 15.6892 0.338786L12.2826 1.25159L12.6429 2.59627C13.0008 3.93205 12.2068 5.30739 10.871 5.6653C9.53532 6.02321 8.15998 5.22911 7.80207 3.89339L7.44177 2.54872L4.03522 3.46145C3.04462 3.72693 2.4573 4.74421 2.7227 5.73481L3.68354 9.32069L2.33886 9.681C1.10174 10.0125 0.36669 11.2855 0.69819 12.5227C1.02969 13.7598 2.30273 14.4948 3.53985 14.1633Z" fill="#2176FF"/>
</svg>
