<svg width="15" height="10" viewBox="0 0 15 10" fill="none" xmlns="http://www.w3.org/2000/svg">
<path fill-rule="evenodd" clip-rule="evenodd" d="M9.06568 0.490975L9.16059 0.38349C9.57189 -0.0278005 10.2191 -0.0594383 10.6666 0.288577L10.7741 0.38349L14.1969 3.80631L14.2442 3.85646V3.85646L14.3071 3.93387V3.93387L14.3889 4.06079V4.06079L14.4499 4.1894V4.1894L14.4902 4.30959V4.30959L14.5232 4.47834V4.47834L14.5311 4.61307V4.61307L14.5279 4.69892V4.69892L14.508 4.84209V4.84209L14.4744 4.96921V4.96921L14.4242 5.09595V5.09595L14.3645 5.20717V5.20717L14.2805 5.32667V5.32667L14.1969 5.41984L10.7741 8.84266C10.3286 9.28822 9.60616 9.28822 9.16059 8.84266C8.7493 8.43137 8.71767 7.78419 9.06568 7.33661L9.16059 7.22913L10.6348 5.75401H1.98078C1.35066 5.75401 0.839844 5.2432 0.839844 4.61307C0.839844 3.98295 1.35066 3.47214 1.98078 3.47214H10.6348L9.16059 1.99702C8.7493 1.58573 8.71767 0.938555 9.06568 0.490975L9.16059 0.38349L9.06568 0.490975Z" fill="white"/>
</svg>
