<svg width="23" height="18" viewBox="0 0 23 18" fill="none" xmlns="http://www.w3.org/2000/svg">
<g clip-path="url(#clip0_27_187)">
<path d="M4.11661 17.9606V16.766C4.11661 16.3091 3.84382 16.0098 3.37553 16.0098C3.14139 16.0098 2.88678 16.0887 2.71174 16.3485C2.57535 16.1305 2.37985 16.0098 2.0866 16.0098C1.8911 16.0098 1.6956 16.0702 1.54102 16.2882V16.0493H1.13184V17.9606H1.54102V16.9052C1.54102 16.5665 1.71606 16.4065 1.98885 16.4065C2.26164 16.4065 2.39803 16.5851 2.39803 16.9052V17.9606H2.80722V16.9052C2.80722 16.5665 3.00272 16.4065 3.25505 16.4065C3.52784 16.4065 3.66423 16.5851 3.66423 16.9052V17.9606H4.11661ZM10.1862 16.0493H9.52239V15.4717H9.11321V16.0493H8.74267V16.4274H9.11321V17.3042C9.11321 17.7426 9.28825 18 9.75654 18C9.93158 18 10.1271 17.9397 10.2635 17.8609L10.1453 17.5013C10.0271 17.5802 9.89066 17.6011 9.79291 17.6011C9.59741 17.6011 9.52012 17.4805 9.52012 17.2833V16.4274H10.1839V16.0493H10.1862ZM13.6597 16.0075C13.4256 16.0075 13.2687 16.1281 13.171 16.2859V16.047H12.7618V17.9583H13.171V16.882C13.171 16.5642 13.3073 16.3833 13.562 16.3833C13.6392 16.3833 13.737 16.4042 13.8166 16.4227L13.9348 16.0238C13.8529 16.0075 13.737 16.0075 13.6597 16.0075ZM8.41077 16.207C8.21527 16.0678 7.94248 16.0075 7.64924 16.0075C7.18095 16.0075 6.86951 16.2464 6.86951 16.6245C6.86951 16.9423 7.10366 17.1232 7.51284 17.1812L7.70834 17.2021C7.92203 17.2415 8.04023 17.3019 8.04023 17.4016C8.04023 17.5408 7.88338 17.6405 7.61059 17.6405C7.3378 17.6405 7.12184 17.5408 6.98545 17.441L6.78995 17.7588C7.00363 17.9189 7.29688 17.9977 7.59013 17.9977C8.13571 17.9977 8.44942 17.7379 8.44942 17.3807C8.44942 17.0421 8.19481 16.8635 7.80609 16.8031L7.61059 16.7823C7.43555 16.7614 7.29916 16.722 7.29916 16.6037C7.29916 16.4645 7.43555 16.3856 7.65151 16.3856C7.88565 16.3856 8.1198 16.4854 8.23801 16.5457L8.41077 16.207ZM19.2974 16.0075C19.0632 16.0075 18.9064 16.1281 18.8086 16.2859V16.047H18.3994V17.9583H18.8086V16.882C18.8086 16.5642 18.945 16.3833 19.1996 16.3833C19.2769 16.3833 19.3746 16.4042 19.4542 16.4227L19.5724 16.0284C19.4929 16.0075 19.3769 16.0075 19.2974 16.0075ZM14.0689 17.0049C14.0689 17.5825 14.4599 18 15.0646 18C15.3374 18 15.5329 17.9397 15.7284 17.782L15.5329 17.4433C15.376 17.564 15.2214 17.622 15.0441 17.622C14.7122 17.622 14.4781 17.383 14.4781 17.0049C14.4781 16.6454 14.7122 16.4065 15.0441 16.3879C15.2191 16.3879 15.376 16.4482 15.5329 16.5665L15.7284 16.2279C15.5329 16.0678 15.3374 16.0098 15.0646 16.0098C14.4599 16.0075 14.0689 16.4274 14.0689 17.0049ZM17.8538 17.0049V16.0493H17.4447V16.2882C17.3083 16.1096 17.1128 16.0098 16.8582 16.0098C16.3308 16.0098 15.9216 16.4274 15.9216 17.0049C15.9216 17.5825 16.3308 18 16.8582 18C17.1309 18 17.3264 17.9003 17.4447 17.7217V17.9606H17.8538V17.0049ZM16.3512 17.0049C16.3512 16.6663 16.5649 16.3879 16.9173 16.3879C17.2492 16.3879 17.4833 16.6477 17.4833 17.0049C17.4833 17.3436 17.2492 17.622 16.9173 17.622C16.5672 17.6011 16.3512 17.3413 16.3512 17.0049ZM11.4547 16.0075C10.9091 16.0075 10.5181 16.4065 10.5181 17.0026C10.5181 17.6011 10.9091 17.9977 11.4751 17.9977C11.7479 17.9977 12.0207 17.9189 12.2366 17.7379L12.0411 17.4387C11.8843 17.5593 11.6888 17.6382 11.4956 17.6382C11.241 17.6382 10.9886 17.5176 10.9295 17.1812H12.3139C12.3139 17.1209 12.3139 17.0815 12.3139 17.0212C12.3321 16.4065 11.9798 16.0075 11.4547 16.0075ZM11.4547 16.3671C11.7093 16.3671 11.8843 16.5271 11.9229 16.824H10.9477C10.9864 16.5665 11.1614 16.3671 11.4547 16.3671ZM21.6206 17.0049V15.2931H21.2114V16.2882C21.075 16.1096 20.8795 16.0098 20.6249 16.0098C20.0975 16.0098 19.6884 16.4274 19.6884 17.0049C19.6884 17.5825 20.0975 18 20.6249 18C20.8977 18 21.0932 17.9003 21.2114 17.7217V17.9606H21.6206V17.0049ZM20.118 17.0049C20.118 16.6663 20.3317 16.3879 20.684 16.3879C21.0159 16.3879 21.2501 16.6477 21.2501 17.0049C21.2501 17.3436 21.0159 17.622 20.684 17.622C20.3317 17.6011 20.118 17.3413 20.118 17.0049ZM6.41941 17.0049V16.0493H6.01022V16.2882C5.87383 16.1096 5.67833 16.0098 5.42373 16.0098C4.89633 16.0098 4.48715 16.4274 4.48715 17.0049C4.48715 17.5825 4.89633 18 5.42373 18C5.69652 18 5.89201 17.9003 6.01022 17.7217V17.9606H6.41941V17.0049ZM4.89861 17.0049C4.89861 16.6663 5.11229 16.3879 5.46464 16.3879C5.79654 16.3879 6.03068 16.6477 6.03068 17.0049C6.03068 17.3436 5.79654 17.622 5.46464 17.622C5.11229 17.6011 4.89861 17.3413 4.89861 17.0049Z" fill="white"/>
<path d="M14.4213 1.5332H8.27441V12.8018H14.4213V1.5332Z" fill="#FF5A00"/>
<path d="M8.6838 7.16752C8.6838 4.87809 9.73859 2.84613 11.3571 1.53325C10.166 0.577577 8.66334 0 7.02433 0C3.14163 0 0 3.20567 0 7.16752C0 11.1294 3.14163 14.335 7.02433 14.335C8.66334 14.335 10.166 13.7575 11.3571 12.8018C9.73632 11.5075 8.6838 9.45696 8.6838 7.16752Z" fill="#EB001B"/>
<path d="M22.7141 7.16752C22.7141 11.1294 19.5724 14.335 15.6897 14.335C14.0507 14.335 12.5481 13.7575 11.3569 12.8018C12.9959 11.4866 14.0303 9.45696 14.0303 7.16752C14.0303 4.87809 12.9755 2.84613 11.3569 1.53325C12.5458 0.577577 14.0485 0 15.6875 0C19.5724 0 22.7141 3.22655 22.7141 7.16752Z" fill="#F79E1B"/>
</g>
<defs>
<clipPath id="clip0_27_187">
<rect width="22.7143" height="18" fill="white"/>
</clipPath>
</defs>
</svg>
