<svg width="31" height="20" viewBox="0 0 31 20" fill="none" xmlns="http://www.w3.org/2000/svg">
<g clip-path="url(#clip0_35_293)">
<path d="M9.36578 0.5C11.2156 0.5 12.9283 1.08342 14.3465 2.07246C12.3506 3.91305 11.0784 6.58035 11.0784 9.5567C11.0784 12.5286 12.3446 15.2172 14.3433 17.0432C12.9257 18.0309 11.2142 18.6134 9.36578 18.6134C4.47444 18.6134 0.5 14.5726 0.5 9.5567C0.5 4.54081 4.47444 0.5 9.36578 0.5Z" stroke="white"/>
<path d="M29.7859 9.5567C29.7859 14.5726 25.8115 18.6134 20.9201 18.6134C19.0715 18.6134 17.3597 18.0307 15.9419 17.0427C17.9599 15.198 19.2075 12.5314 19.2075 9.5567C19.2075 6.58017 17.9352 3.91273 15.939 2.07212C17.3549 1.0834 19.0673 0.5 20.9171 0.5C25.8106 0.5 29.7859 4.56779 29.7859 9.5567Z" stroke="white"/>
</g>
<defs>
<clipPath id="clip0_35_293">
<rect width="30.6667" height="20" fill="white"/>
</clipPath>
</defs>
</svg>
