<svg width="52" height="52" viewBox="0 0 52 52" fill="none" xmlns="http://www.w3.org/2000/svg">
<path d="M24.6656 19.5761L23.3209 19.9364L22.3601 16.3506C22.0946 15.36 21.0774 14.7727 20.0868 15.0381L16.5009 15.9989L16.1406 14.6543C15.8091 13.4171 14.536 12.6822 13.2989 13.0136C12.0618 13.3451 11.3268 14.6181 11.6582 15.8553L12.0185 17.1999L8.43274 18.1608C7.44214 18.4262 6.86377 19.4411 7.12925 20.4317L8.03754 23.8395L9.3777 23.4804C10.7134 23.1225 12.0888 23.9166 12.4467 25.2523C12.8046 26.5881 12.0105 27.9634 10.6748 28.3213L9.3346 28.6804L10.2429 32.0882C10.5084 33.0788 11.5256 33.6661 12.5162 33.4007L15.9229 32.4879L15.5626 31.1432C15.2046 29.8074 15.9987 28.4321 17.3344 28.0742C18.6702 27.7163 20.0455 28.5104 20.4034 29.8461L20.7637 31.1907L24.1703 30.278C25.1609 30.0125 25.7482 28.9952 25.4828 28.0046L24.5219 24.4188L25.8666 24.0585C27.1038 23.727 27.8388 22.4539 27.5073 21.2168C27.1758 19.9797 25.9028 19.2447 24.6656 19.5761Z" fill="#FDD661"/>
<path d="M15.8031 31.3006L16.1634 32.6453L12.5776 33.6061C11.587 33.8716 10.9996 34.8888 11.265 35.8794L12.2259 39.4653L10.8812 39.8256C9.64407 40.1571 8.90909 41.4302 9.24053 42.6673C9.57203 43.9044 10.8451 44.6394 12.0822 44.308L13.4269 43.9477L14.3877 47.5335C14.6532 48.5241 15.6681 49.1024 16.6587 48.837L20.0664 47.9287L19.7074 46.5885C19.3495 45.2528 20.1435 43.8774 21.4792 43.5195C22.815 43.1616 24.1903 43.9557 24.5482 45.2914L24.9074 46.6316L28.3151 45.7233C29.3057 45.4578 29.893 44.4406 29.6276 43.45L28.7148 40.0434L27.3701 40.4037C26.0344 40.7616 24.659 39.9675 24.3011 38.6318C23.9432 37.296 24.7373 35.9207 26.073 35.5628L27.4177 35.2025L26.5049 31.7959C26.2395 30.8054 25.2222 30.218 24.2316 30.4834L20.6457 31.4443L20.2854 30.0996C19.954 28.8625 18.6809 28.1275 17.4438 28.4589C16.2067 28.7904 15.4716 30.0634 15.8031 31.3006Z" fill="#28BB90"/>
<path d="M27.5397 40.1632L28.8844 39.8029L29.8452 43.3887C30.1107 44.3793 31.128 44.9666 32.1186 44.7012L35.7044 43.7404L36.0648 45.0851C36.3962 46.3222 37.6693 47.0572 38.9065 46.7257C40.1436 46.3942 40.8786 45.1212 40.5471 43.8841L40.1867 42.5394L43.7726 41.5786C44.7632 41.3132 45.3416 40.2982 45.0761 39.3076L44.1678 35.8998L42.8277 36.259C41.4919 36.6169 40.1165 35.8228 39.7586 34.4871C39.4007 33.1513 40.1948 31.7759 41.5305 31.418L42.8707 31.059L41.9625 27.6512C41.697 26.6606 40.6797 26.0733 39.6891 26.3387L36.2825 27.2515L36.6428 28.5961C37.0007 29.9319 36.2067 31.3073 34.8709 31.6652C33.5352 32.0231 32.1599 31.229 31.802 29.8933L31.4416 28.5486L28.0351 29.4613C27.0445 29.7268 26.4572 30.7441 26.7226 31.7347L27.6834 35.3206L26.3387 35.6809C25.1016 36.0124 24.3666 37.2854 24.6981 38.5225C25.0296 39.7597 26.3026 40.4946 27.5397 40.1632Z" fill="#3970CE"/>
<path d="M37.2196 20.3473L36.2352 19.363L38.8602 16.738C39.5854 16.0128 39.5854 14.8381 38.8602 14.113L36.2352 11.4879L37.2196 10.5035C38.1252 9.59792 38.1252 8.12789 37.2196 7.22227C36.3139 6.31661 34.8439 6.31661 33.9383 7.22227L32.9539 8.20664L30.3289 5.58161C29.6038 4.85646 28.4356 4.86301 27.7104 5.58819L25.2134 8.0787L26.1945 9.05979C27.1723 10.0376 27.1723 11.6257 26.1945 12.6036C25.2166 13.5814 23.6285 13.5814 22.6507 12.6036L21.6696 11.6225L19.1726 14.113C18.4474 14.8381 18.4474 16.0128 19.1726 16.738L21.6663 19.2317L22.6507 18.2474C23.6285 17.2696 25.2167 17.2696 26.1945 18.2474C27.1723 19.2252 27.1723 20.8133 26.1945 21.7912L25.2101 22.7755L27.7038 25.2693C28.429 25.9944 29.6037 25.9945 30.3289 25.2693L32.9539 22.6443L33.9383 23.6287C34.8439 24.5343 36.3139 24.5343 37.2196 23.6287C38.1252 22.723 38.1252 21.253 37.2196 20.3473Z" fill="#CF3A40"/>
</svg>
