<svg width="20" height="20" viewBox="0 0 20 20" fill="none" xmlns="http://www.w3.org/2000/svg">
<path d="M2.49984 4.99996V4.49996C2.22369 4.49996 1.99984 4.72382 1.99984 4.99996H2.49984ZM17.4998 4.99996H17.9998C17.9998 4.72382 17.776 4.49996 17.4998 4.49996V4.99996ZM6.23776 11.4094C6.09568 11.6462 6.17247 11.9533 6.40926 12.0954C6.64605 12.2374 6.95318 12.1607 7.09525 11.9239L6.23776 11.4094ZM7.56838 10.1635L7.13963 9.90625V9.90625L7.56838 10.1635ZM12.4313 9.83642L12.0026 9.57917L12.4313 9.83642ZM13.7619 8.59054C13.904 8.35375 13.8272 8.04662 13.5904 7.90455C13.3536 7.76247 13.0465 7.83925 12.9044 8.07605L13.7619 8.59054ZM10.4998 15C10.4998 14.7238 10.276 14.5 9.99984 14.5C9.72369 14.5 9.49984 14.7238 9.49984 15H10.4998ZM9.49984 18.3333C9.49984 18.6094 9.72369 18.8333 9.99984 18.8333C10.276 18.8333 10.4998 18.6094 10.4998 18.3333H9.49984ZM3.33317 2.16663H16.6665V1.16663H3.33317V2.16663ZM16.6665 4.49996H3.33317V5.49996H16.6665V4.49996ZM3.33317 4.49996C2.68884 4.49996 2.1665 3.97762 2.1665 3.33329H1.1665C1.1665 4.52991 2.13655 5.49996 3.33317 5.49996V4.49996ZM17.8332 3.33329C17.8332 3.97762 17.3108 4.49996 16.6665 4.49996V5.49996C17.8631 5.49996 18.8332 4.52991 18.8332 3.33329H17.8332ZM16.6665 2.16663C17.3108 2.16663 17.8332 2.68896 17.8332 3.33329H18.8332C18.8332 2.13668 17.8631 1.16663 16.6665 1.16663V2.16663ZM3.33317 1.16663C2.13655 1.16663 1.1665 2.13668 1.1665 3.33329H2.1665C2.1665 2.68896 2.68884 2.16663 3.33317 2.16663V1.16663ZM2.49984 5.49996H17.4998V4.49996H2.49984V5.49996ZM16.9998 4.99996V13.3333H17.9998V4.99996H16.9998ZM15.8332 14.5H4.1665V15.5H15.8332V14.5ZM2.99984 13.3333V4.99996H1.99984V13.3333H2.99984ZM4.1665 14.5C3.52217 14.5 2.99984 13.9776 2.99984 13.3333H1.99984C1.99984 14.5299 2.96989 15.5 4.1665 15.5V14.5ZM16.9998 13.3333C16.9998 13.9776 16.4775 14.5 15.8332 14.5V15.5C17.0298 15.5 17.9998 14.5299 17.9998 13.3333H16.9998ZM7.09525 11.9239L7.99713 10.4207L7.13963 9.90625L6.23776 11.4094L7.09525 11.9239ZM12.86 10.0937L13.7619 8.59054L12.9044 8.07605L12.0026 9.57917L12.86 10.0937ZM9.6094 10.3123C10.4731 11.392 12.1487 11.2793 12.86 10.0937L12.0026 9.57917C11.6497 10.1672 10.8187 10.2231 10.3903 9.68761L9.6094 10.3123ZM7.99713 10.4207C8.34996 9.8327 9.181 9.7768 9.6094 10.3123L10.3903 9.68761C9.52653 8.60794 7.851 8.72064 7.13963 9.90625L7.99713 10.4207ZM9.49984 15V18.3333H10.4998V15H9.49984Z" fill="#2176FF"/>
</svg>
