<svg width="128" height="128" viewBox="0 0 128 128" fill="none" xmlns="http://www.w3.org/2000/svg">
<path d="M117.968 73.7976L114.596 72.6202C111.989 71.7098 110.613 68.8584 111.524 66.2513L117.41 49.3928C119.492 43.4313 116.349 36.9172 110.388 34.8355L93.529 28.9488C90.9219 28.0385 89.5465 25.1871 90.4568 22.58L91.6341 19.2083C94.2339 11.7636 90.3011 3.61159 82.8564 1.01176C75.4114 -1.58772 67.2596 2.3447 64.6598 9.78943L63.4825 13.1611C62.5722 15.7682 59.7208 17.1437 57.1138 16.2334L40.255 10.3469C34.2935 8.26557 27.8333 11.4268 25.752 17.3883L20.2234 33.1547C19.3088 35.7631 20.684 38.6187 23.2936 39.5298L26.6318 40.6953C34.6701 43.502 38.9187 52.3093 36.112 60.3476C33.305 68.3862 24.4979 72.6344 16.4597 69.8277L13.1087 68.6575C10.5041 67.748 7.65492 69.12 6.742 71.7235L1.20908 87.5023C-0.872243 93.4639 2.27012 99.978 8.2314 102.06L24.0117 107.57C26.6188 108.48 29.4702 107.104 30.3805 104.497L31.5578 101.126C34.3644 93.0868 43.1715 88.8387 51.2098 91.6454C59.2484 94.4523 63.4966 103.259 60.6899 111.298L59.5125 114.669C58.6022 117.276 59.9777 120.128 62.5847 121.038L78.3645 126.548C84.3261 128.63 90.8402 125.487 92.9218 119.526L98.8085 102.667C99.7188 100.06 102.57 98.6843 105.177 99.5946L108.549 100.772C115.994 103.372 124.146 99.4392 126.746 91.9942C129.345 84.5496 125.413 76.3975 117.968 73.7976Z" fill="#FD9A05"/>
</svg>
