<svg width="20" height="20" viewBox="0 0 20 20" fill="none" xmlns="http://www.w3.org/2000/svg">
<path fill-rule="evenodd" clip-rule="evenodd" d="M1.6665 2.70837C1.32133 2.70837 1.0415 2.9882 1.0415 3.33337C1.0415 3.67855 1.32133 3.95837 1.6665 3.95837H10.8332C11.1783 3.95837 11.4582 3.67855 11.4582 3.33337C11.4582 2.9882 11.1783 2.70837 10.8332 2.70837H1.6665ZM1.6665 6.04171C1.32133 6.04171 1.0415 6.32153 1.0415 6.66671C1.0415 7.01189 1.32133 7.29171 1.6665 7.29171H10.8332C11.1783 7.29171 11.4582 7.01189 11.4582 6.66671C11.4582 6.32153 11.1783 6.04171 10.8332 6.04171H1.6665ZM14.1665 2.70837C13.8213 2.70837 13.5415 2.9882 13.5415 3.33337V10.4466C12.8335 9.78206 11.8808 9.37504 10.8332 9.37504C8.64704 9.37504 6.87484 11.1472 6.87484 13.3334C6.87484 15.5195 8.64704 17.2917 10.8332 17.2917C13.0193 17.2917 14.7915 15.5195 14.7915 13.3334V4.01335C16.4494 4.30854 17.7082 5.75729 17.7082 7.50004C17.7082 8.29806 17.445 9.03281 17.0004 9.62468C16.7931 9.90067 16.8488 10.2925 17.1248 10.4998C17.4008 10.7071 17.7926 10.6514 17.9999 10.3754C18.6015 9.5745 18.9582 8.57803 18.9582 7.50004C18.9582 4.85368 16.8129 2.70837 14.1665 2.70837ZM1.6665 9.37504C1.32133 9.37504 1.0415 9.65486 1.0415 10C1.0415 10.3452 1.32133 10.625 1.6665 10.625H4.99984C5.34502 10.625 5.62484 10.3452 5.62484 10C5.62484 9.65486 5.34502 9.37504 4.99984 9.37504H1.6665Z" fill="#2176FF"/>
</svg>
