<svg width="20" height="20" viewBox="0 0 20 20" fill="none" xmlns="http://www.w3.org/2000/svg">
<path d="M6.6665 13.75H6.1665C6.1665 13.925 6.25799 14.0872 6.40773 14.1778C6.55747 14.2684 6.74366 14.2741 6.89865 14.1928L6.6665 13.75ZM1.1665 18.3333C1.1665 18.6094 1.39036 18.8333 1.6665 18.8333C1.94265 18.8333 2.1665 18.6094 2.1665 18.3333H1.1665ZM9.36884 12.3333L9.60099 12.7762L9.61958 12.7664L9.63728 12.7552L9.36884 12.3333ZM10.6593 14.3795L10.8941 14.8209L10.9095 14.8127L10.9243 14.8035L10.6593 14.3795ZM7.30339 16.1644L7.0686 15.723L7.05319 15.7312L7.03839 15.7404L7.30339 16.1644ZM4.97299 15.578L5.40711 15.3299L4.97299 15.578ZM4.60063 13.9186C4.46362 13.6788 4.15819 13.5955 3.91843 13.7325C3.67868 13.8695 3.59538 14.1749 3.73238 14.4147L4.60063 13.9186ZM11.0554 12.7315L11.4842 12.4742L11.0554 12.7315ZM7.1665 16.6666C7.1665 16.3905 6.94265 16.1666 6.6665 16.1666C6.39036 16.1666 6.1665 16.3905 6.1665 16.6666H7.1665ZM6.1665 18.3333C6.1665 18.6094 6.39036 18.8333 6.6665 18.8333C6.94265 18.8333 7.1665 18.6094 7.1665 18.3333H6.1665ZM10.828 11.8149L10.5596 12.2367L11.4032 12.7736L11.6717 12.3517L10.828 11.8149ZM14.5883 7.7684C14.7366 7.53543 14.6679 7.22638 14.4349 7.07813C14.202 6.92987 13.8929 6.99855 13.7447 7.23152L14.5883 7.7684ZM4.49984 3.74996C4.49984 4.0261 4.7237 4.24996 4.99984 4.24996C5.27598 4.24996 5.49984 4.0261 5.49984 3.74996H4.49984ZM15.8332 9.49996C15.557 9.49996 15.3332 9.72382 15.3332 9.99996C15.3332 10.2761 15.557 10.5 15.8332 10.5V9.49996ZM8.33317 4.49996C8.05703 4.49996 7.83317 4.72382 7.83317 4.99996C7.83317 5.2761 8.05703 5.49996 8.33317 5.49996V4.49996ZM14.9998 5.49996C15.276 5.49996 15.4998 5.2761 15.4998 4.99996C15.4998 4.72382 15.276 4.49996 14.9998 4.49996V5.49996ZM8.33317 6.99996C8.05703 6.99996 7.83317 7.22382 7.83317 7.49996C7.83317 7.7761 8.05703 7.99996 8.33317 7.99996V6.99996ZM11.6665 7.99996C11.9426 7.99996 12.1665 7.7761 12.1665 7.49996C12.1665 7.22382 11.9426 6.99996 11.6665 6.99996V7.99996ZM5.33317 7.49996C5.33317 8.14429 4.81084 8.66663 4.1665 8.66663V9.66663C5.36312 9.66663 6.33317 8.69658 6.33317 7.49996H5.33317ZM4.1665 8.66663C3.52217 8.66663 2.99984 8.14429 2.99984 7.49996H1.99984C1.99984 8.69658 2.96989 9.66663 4.1665 9.66663V8.66663ZM2.99984 7.49996C2.99984 6.85563 3.52217 6.33329 4.1665 6.33329V5.33329C2.96989 5.33329 1.99984 6.30334 1.99984 7.49996H2.99984ZM4.1665 6.33329C4.81084 6.33329 5.33317 6.85563 5.33317 7.49996H6.33317C6.33317 6.30334 5.36312 5.33329 4.1665 5.33329V6.33329ZM7.1665 13.75V13.3333H6.1665V13.75H7.1665ZM1.1665 13.3333V18.3333H2.1665V13.3333H1.1665ZM6.89865 14.1928L9.60099 12.7762L9.13669 11.8905L6.43436 13.3071L6.89865 14.1928ZM10.4245 13.938L7.0686 15.723L7.53819 16.6058L10.8941 14.8209L10.4245 13.938ZM5.40711 15.3299L4.60063 13.9186L3.73238 14.4147L4.53887 15.826L5.40711 15.3299ZM9.63728 12.7552C9.97406 12.5408 10.4213 12.6464 10.6267 12.9887L11.4842 12.4742C10.9893 11.6495 9.91181 11.3951 9.10041 11.9115L9.63728 12.7552ZM7.03839 15.7404C6.47669 16.0915 5.73574 15.905 5.40711 15.3299L4.53887 15.826C5.14918 16.8941 6.52524 17.2404 7.56839 16.5884L7.03839 15.7404ZM2.1665 13.3333C2.1665 12.2287 3.06193 11.3333 4.1665 11.3333V10.3333C2.50965 10.3333 1.1665 11.6764 1.1665 13.3333H2.1665ZM10.6267 12.9887C10.8257 13.3204 10.7223 13.7504 10.3943 13.9555L10.9243 14.8035C11.7147 14.3095 11.9637 13.2734 11.4842 12.4742L10.6267 12.9887ZM7.1665 13.3333C7.1665 11.6764 5.82336 10.3333 4.1665 10.3333V11.3333C5.27107 11.3333 6.1665 12.2287 6.1665 13.3333H7.1665ZM6.1665 16.6666V18.3333H7.1665V16.6666H6.1665ZM11.6717 12.3517L14.5883 7.7684L13.7447 7.23152L10.828 11.8149L11.6717 12.3517ZM5.49984 3.74996V3.33329H4.49984V3.74996H5.49984ZM6.6665 2.16663H16.6665V1.16663H6.6665V2.16663ZM17.8332 3.33329V8.33329H18.8332V3.33329H17.8332ZM16.6665 9.49996H15.8332V10.5H16.6665V9.49996ZM17.8332 8.33329C17.8332 8.97763 17.3108 9.49996 16.6665 9.49996V10.5C17.8631 10.5 18.8332 9.52991 18.8332 8.33329H17.8332ZM16.6665 2.16663C17.3108 2.16663 17.8332 2.68896 17.8332 3.33329H18.8332C18.8332 2.13668 17.8631 1.16663 16.6665 1.16663V2.16663ZM5.49984 3.33329C5.49984 2.68896 6.02217 2.16663 6.6665 2.16663V1.16663C5.46989 1.16663 4.49984 2.13668 4.49984 3.33329H5.49984ZM8.33317 5.49996H14.9998V4.49996H8.33317V5.49996ZM8.33317 7.99996H11.6665V6.99996H8.33317V7.99996Z" fill="#2176FF"/>
</svg>
