<svg width="5" height="19" viewBox="0 0 5 19" fill="none" xmlns="http://www.w3.org/2000/svg">
<path fill-rule="evenodd" clip-rule="evenodd" d="M2.20172 14.6044C3.30444 14.6044 4.19837 15.4984 4.19837 16.6011C4.19837 17.7038 3.30444 18.5977 2.20172 18.5977C1.09901 18.5977 0.205078 17.7038 0.205078 16.6011C0.205078 15.4984 1.09901 14.6044 2.20172 14.6044ZM2.20172 7.61618C3.30444 7.61618 4.19837 8.51011 4.19837 9.61283C4.19837 10.7155 3.30444 11.6095 2.20172 11.6095C1.09901 11.6095 0.205078 10.7155 0.205078 9.61283C0.205078 8.51011 1.09901 7.61618 2.20172 7.61618ZM2.20172 0.62793C3.30444 0.62793 4.19837 1.52186 4.19837 2.62457C4.19837 3.72729 3.30444 4.62122 2.20172 4.62122C1.09901 4.62122 0.205078 3.72729 0.205078 2.62457C0.205078 1.52186 1.09901 0.62793 2.20172 0.62793Z" fill="#1E293B"/>
</svg>
