<svg width="24" height="24" viewBox="0 0 24 24" fill="none" xmlns="http://www.w3.org/2000/svg">
<path d="M8.85 8C8.85 9.7397 10.2603 11.15 12 11.15C13.7397 11.15 15.15 9.7397 15.15 8C15.15 6.2603 13.7397 4.85 12 4.85C10.2603 4.85 8.85 6.2603 8.85 8ZM7.15 8C7.15 5.32142 9.32142 3.15 12 3.15C14.6786 3.15 16.85 5.32142 16.85 8C16.85 10.6786 14.6786 12.85 12 12.85C9.32142 12.85 7.15 10.6786 7.15 8ZM4.15143 21.85C4.19014 19.8223 5.01244 17.886 6.44921 16.4492C7.92137 14.9771 9.91805 14.15 12 14.15C14.0819 14.15 16.0786 14.9771 17.5508 16.4492C18.9876 17.886 19.8099 19.8223 19.8486 21.85H18.1482C18.1097 20.2733 17.4667 18.7692 16.3487 17.6513C15.1954 16.4979 13.6311 15.85 12 15.85C10.3689 15.85 8.80464 16.4979 7.65129 17.6513C6.53335 18.7692 5.89025 20.2733 5.85183 21.85H4.15143Z" fill="#06162F" stroke="white" stroke-width="0.3"/>
</svg>
