<svg width="56" height="18" viewBox="0 0 56 18" fill="none" xmlns="http://www.w3.org/2000/svg">
<g clip-path="url(#clip0_27_180)">
<path d="M24.2297 17.7403H19.7002L22.5333 0.315796H27.0625L24.2297 17.7403Z" fill="white"/>
<path d="M40.6498 0.741829C39.7563 0.38927 38.3393 0 36.5872 0C32.1141 0 28.9643 2.37257 28.9449 5.76463C28.9078 8.26729 31.2002 9.65732 32.9147 10.4918C34.6671 11.3445 35.2628 11.901 35.2628 12.6611C35.2449 13.8284 33.8467 14.3665 32.5426 14.3665C30.7342 14.3665 29.7653 14.0891 28.2928 13.4396L27.6963 13.1612L27.0625 17.0727C28.1248 17.5541 30.0821 17.9813 32.1141 18C36.8668 18 39.9609 15.6641 39.9976 12.0494C40.0157 10.0658 38.8052 8.54594 36.1956 7.30397C34.6113 6.50671 33.6411 5.96912 33.6411 5.15338C33.6597 4.4118 34.4617 3.65223 36.25 3.65223C37.7226 3.61503 38.8045 3.9671 39.6241 4.31941L40.0338 4.50444L40.6498 0.741829Z" fill="white"/>
<path d="M46.6695 11.5674C47.0425 10.5664 48.4779 6.69217 48.4779 6.69217C48.4591 6.72938 48.8502 5.67268 49.0738 5.02398L49.3904 6.52538C49.3904 6.52538 50.2481 10.6962 50.4344 11.5674C49.7265 11.5674 47.5642 11.5674 46.6695 11.5674ZM52.2606 0.315796H48.757C47.6766 0.315796 46.8558 0.63066 46.3896 1.76151L39.6616 17.74H44.4143C44.4143 17.74 45.1967 15.5894 45.3649 15.1263C45.8863 15.1263 50.5097 15.1263 51.1804 15.1263C51.3105 15.738 51.7209 17.74 51.7209 17.74H55.9148L52.2606 0.315796Z" fill="white"/>
<path d="M15.9168 0.315796L11.4809 12.1976L10.9962 9.78785C10.1761 7.00728 7.60411 3.98626 4.73389 2.48412L8.79699 17.7218H13.5868L20.7064 0.315796H15.9168Z" fill="white"/>
<path d="M7.36207 0.315796H0.0745542L0 0.667863C5.68472 2.11382 9.4496 5.59926 10.9964 9.78859L9.4122 1.78048C9.15138 0.667616 8.34986 0.352505 7.36207 0.315796Z" fill="#00579F"/>
</g>
<defs>
<clipPath id="clip0_27_180">
<rect width="55.9149" height="18" fill="white"/>
</clipPath>
</defs>
</svg>
