<svg width="80" height="18" viewBox="0 0 80 18" fill="none" xmlns="http://www.w3.org/2000/svg">
<g clip-path="url(#clip0_27_193)">
<path opacity="0.99" d="M79.2 0H0V18H79.2V0Z" fill="#FFE500"/>
<path d="M24.2885 11.2125L24.4975 12.0089L24.3979 12.0604C24.1643 12.1749 23.9368 12.2517 23.5864 12.2517C22.8204 12.2517 22.3458 11.7685 22.3458 10.991L22.3446 8.65091H21.5577V7.84697H22.3446V6.69327L23.2889 6.4341V7.84697H24.286V8.65091H23.2889L23.2901 10.8677C23.2901 11.1508 23.4745 11.3458 23.7598 11.3634C23.9184 11.3735 24.0758 11.3257 24.2147 11.2527L24.2885 11.2125ZM47.5318 7.84571V12.2039H48.4761V7.84571H47.5318ZM53.548 10.0248C53.548 11.2942 52.616 12.2517 51.3791 12.2517C50.1372 12.2517 49.2016 11.2942 49.2016 10.0248C49.2016 8.75534 50.1372 7.7979 51.3791 7.7979C52.616 7.7979 53.548 8.75534 53.548 10.0248ZM52.6074 10.0248C52.6074 9.25859 52.091 8.7025 51.3791 8.7025C50.6623 8.7025 50.1422 9.25859 50.1422 10.0248C50.1422 10.791 50.6623 11.3471 51.3791 11.3471C52.091 11.3471 52.6074 10.791 52.6074 10.0248ZM41.1948 9.9103C41.1948 9.9103 41.2808 11.2678 39.83 11.2678C38.3791 11.2678 38.4664 9.90275 38.4664 9.90275V6.40516H37.4692V9.87004C37.4692 11.3194 38.3963 12.2517 39.83 12.2517C41.2636 12.2517 42.1907 11.3194 42.1907 9.87759V6.40516H41.1935V9.9103H41.1948ZM48.004 5.79749C47.6081 5.79749 47.2872 6.12586 47.2872 6.53097C47.2872 6.71592 47.3548 6.88576 47.4654 7.01409H48.5425C48.6532 6.88451 48.7208 6.71592 48.7208 6.53097C48.7208 6.12586 48.3999 5.79749 48.004 5.79749ZM31.56 7.80671C31.276 7.84446 30.9785 7.94259 30.7129 8.16024V7.84571H29.7686V12.2039H30.7129V9.55425C30.7129 9.46492 30.7276 9.37685 30.7608 9.29382C30.842 9.09503 30.9981 8.88618 31.2268 8.78553C31.3805 8.71759 31.5268 8.69495 31.6522 8.69495C31.7887 8.69495 31.9891 8.71759 32.1293 8.79182V7.86081C32.1281 7.86081 31.844 7.76897 31.56 7.80671ZM12.4258 6.40642L11.3463 10.5306L10.0503 6.40642H9.03474L7.7388 10.5306L6.65802 6.40516H5.66455L7.18427 12.2039H8.17774L9.54377 7.90359L10.9086 12.2039H11.902L13.4205 6.40642H12.4258ZM15.4788 12.2517C14.2369 12.2479 13.3074 11.2968 13.305 10.026C13.305 9.74548 13.3517 9.46366 13.4476 9.20071C13.5939 8.80315 13.8533 8.45213 14.1915 8.20428C14.5603 7.93504 15.0128 7.7979 15.464 7.7979C16.0616 7.7979 16.5448 8.01053 16.8928 8.39174C17.1313 8.65469 17.2924 8.98809 17.3858 9.33156C17.4694 9.6398 17.478 9.9493 17.478 10.2676H14.2369L14.2554 10.362C14.3747 10.947 14.864 11.3395 15.4788 11.3408C16.01 11.3395 16.3579 11.0841 16.5411 10.8954L17.1879 11.5119C16.7956 11.9711 16.1563 12.2504 15.4788 12.2517ZM16.5079 9.56809C16.4661 9.28753 16.3346 9.02835 16.1157 8.86228C15.8784 8.68237 15.6472 8.6484 15.3964 8.6484C15.0484 8.6484 14.7325 8.81699 14.5136 9.07742C14.339 9.28375 14.2603 9.56683 14.2603 9.56683H16.5079V9.56809ZM27.0439 12.2517C25.8021 12.2479 24.8725 11.2968 24.8701 10.026C24.8701 9.74548 24.9168 9.46366 25.0127 9.20071C25.159 8.80315 25.4184 8.45213 25.7566 8.20428C26.1254 7.93504 26.5779 7.7979 27.0292 7.7979C27.6267 7.7979 28.1099 8.01053 28.4579 8.39174C28.6964 8.65469 28.8575 8.98809 28.9509 9.33156C29.0345 9.6398 29.0431 9.9493 29.0431 10.2676H25.8021L25.8205 10.362C25.9398 10.947 26.4291 11.3395 27.0439 11.3408C27.5751 11.3395 27.923 11.0841 28.1062 10.8954L28.753 11.5119C28.3595 11.9711 27.7214 12.2504 27.0439 12.2517ZM28.0718 9.56809C28.03 9.28753 27.8984 9.02835 27.6796 8.86228C27.4423 8.68237 27.2111 8.6484 26.9603 8.6484C26.6123 8.6484 26.2963 8.81699 26.0775 9.07742C25.9029 9.28375 25.8242 9.56683 25.8242 9.56683H28.0718V9.56809ZM19.8006 9.53663C19.39 9.43724 19.0998 9.3303 19.0949 9.08245C19.0887 8.75031 19.374 8.64966 19.8683 8.64966C20.0724 8.64966 20.7203 8.6484 20.7203 8.6484V7.84446L19.8769 7.84571C19.1355 7.84571 18.2035 8.00927 18.2035 9.14158C18.2121 9.64987 18.5502 10.0437 19.1797 10.2462C19.3248 10.2928 19.4724 10.328 19.615 10.3632C20.0527 10.4702 20.4302 10.5784 20.4351 10.9118C20.44 11.2137 20.0466 11.3949 19.717 11.4012C19.1367 11.4012 18.7531 11.059 18.6326 10.9344L18.0166 11.522C18.0166 11.522 18.5551 12.2492 19.7539 12.2492C20.5396 12.2492 21.3425 11.7283 21.329 10.8778C21.3142 10.0361 20.5482 9.71906 19.8006 9.53663ZM45.0383 7.7979C44.7039 7.7979 44.3129 7.85578 43.9711 8.11118V7.84571H43.0268V12.2039H43.9711V9.57186C43.9711 9.1831 44.276 8.71759 44.8748 8.71759C45.3998 8.71759 45.7539 9.08245 45.7539 9.62596V12.2039H46.6982V9.56305C46.6982 8.48358 46.0219 7.7979 45.0383 7.7979ZM34.9757 7.7979C34.6413 7.7979 34.2503 7.85578 33.9085 8.11118V7.84571H32.9642V12.2039H33.9085V9.57186C33.9085 9.1831 34.2134 8.71759 34.8122 8.71759C35.3372 8.71759 35.6913 9.08245 35.6913 9.62596V12.2039H36.6356V9.56305C36.6356 8.48358 35.9593 7.7979 34.9757 7.7979ZM56.285 7.7979C55.9505 7.7979 55.5595 7.85578 55.2177 8.11118V7.84571H54.2734V12.2039H55.2177V9.57186C55.2177 9.1831 55.5227 8.71759 56.1214 8.71759C56.6465 8.71759 57.0006 9.08245 57.0006 9.62596V12.2039H57.9449V9.56305C57.9449 8.48358 57.2698 7.7979 56.285 7.7979Z" fill="black"/>
<path d="M68.7514 6.40637L67.2096 12.2038H66.0907L64.9226 8.36024L63.7545 12.2038H62.643L61.0864 6.40637H62.2988L63.2517 10.0751L64.3656 6.40637H65.487L66.6206 10.1027L67.5526 6.40637H68.7514ZM72.3134 6.40637V9.97693V9.98574C72.3134 9.99077 72.338 10.4764 72.0318 10.8098C71.8327 11.0262 71.5339 11.1357 71.1429 11.1357C70.7519 11.1357 70.4531 11.0262 70.2539 10.8098C69.9478 10.4764 69.9724 9.99077 69.9724 9.98574V6.40637H69.4695L68.7514 9.10631V9.94548C68.7514 10.6601 68.9777 11.2653 69.4055 11.6968C69.8334 12.1271 70.4334 12.3548 71.1429 12.3548C71.8511 12.3548 72.4523 12.1271 72.8802 11.6968C73.3081 11.2665 73.5344 10.6601 73.5344 9.94548V6.40637H72.3134Z" fill="black"/>
<path d="M60.4467 12.2038L58.8901 6.40637H59.2873L60.8451 12.2038H60.4467ZM61.9431 12.2038L60.3865 6.40637H59.9894L61.5447 12.2038H61.9431Z" fill="white"/>
</g>
<defs>
<clipPath id="clip0_27_193">
<rect width="79.2" height="18" fill="white"/>
</clipPath>
</defs>
</svg>
