<svg width="20" height="20" viewBox="0 0 20 20" fill="none" xmlns="http://www.w3.org/2000/svg">
<path fill-rule="evenodd" clip-rule="evenodd" d="M18.3334 10.0001C18.3334 14.6025 14.6024 18.3334 10 18.3334C8.72702 18.3334 7.52069 18.048 6.44153 17.5376L3.04119 18.1043C2.3662 18.2168 1.78016 17.6334 1.88968 16.9579L2.44637 13.5243C1.94612 12.4539 1.66669 11.2596 1.66669 10.0001C1.66669 5.39771 5.39765 1.66675 10 1.66675C14.6024 1.66675 18.3334 5.39771 18.3334 10.0001ZM13.3333 12.2292V12.5927C13.3333 13.0018 13.0017 13.3334 12.5926 13.3334C9.31979 13.3334 6.66666 10.6803 6.66666 7.40749C6.66666 6.99839 6.99831 6.66675 7.40741 6.66675H7.77091C8.22244 6.66675 8.62848 6.94165 8.79617 7.36089L8.95168 7.74966C9.12553 8.18429 8.93721 8.67963 8.51852 8.88897C8.51852 8.88897 8.7037 9.8149 9.44444 10.5556C10.1852 11.2964 11.1111 11.4816 11.1111 11.4816C11.3205 11.0629 11.8158 10.8745 12.2504 11.0484L12.6392 11.2039C13.0584 11.3716 13.3333 11.7776 13.3333 12.2292Z" fill="white"/>
</svg>
